/* XPM */
static char *a334711362f242ab9e3c682a545eb146G9XWZlTP7cKYr0sq[] = {
/* columns rows colors chars-per-pixel */
"64 64 24 1 ",
"  c #F7CE46",
". c #FBDC75",
"X c #C88644",
"o c #E9BA4C",
"O c #D1964C",
"+ c #D9A453",
"@ c #6F533A",
"# c #624831",
"$ c #704C2E",
"% c #896445",
"& c #EA8E16",
"* c #EA9A16",
"= c #EAA616",
"- c #F1B21F",
"; c #A28166",
": c #FABF29",
"> c #FACE29",
", c #FADE29",
"< c #C8A671",
"1 c #7C512B",
"2 c #C8975B",
"3 c #B08D6A",
"4 c #FFF9CF",
"5 c #BC986D",
/* pixels */
"             ...................................................",
"              ..................................................",
"               ................................................ ",
"                   .........................................    ",
"                ..     ...............   ..........XX....    .. ",
"                  ...     ..........         .....X..X........  ",
"                    ...................          X....X.....    ",
"                ooo    .......     ......       X    ..X..      ",
"O                ooooooo         ....          X ++++++ X   OOOO",
"OO          ooooooooooo                       X++++++++++XOOOOOO",
"OOO+++  ooooooooooooo      oooooooo      OOOOX++++++++++++XOOOOO",
"OO+++++++ooo+++ooooooooo    ooooo++++OOOOOOOX++++++++++++++XOOOO",
"O+++OOO++++oo+++++ooooooooooooo++++++++OOOOX++++++++++++++++XOOO",
"OOO++OOOO++++++++ooooo+++oooo++++OO++OOOOOX++++++++++++++++++XOO",
"OOOOOOOOOOOO+++++++++++ooooo++++OOOOOOOOOX++++++++++++++++++++XO",
"@@@@@@@@##########@@@@@@@@@@@@@@@@@@@@@@@@@#$$$$$$$$$$$$$%######",
"...  ................           ..........$&&&&&&&**=----%......",
"..    ..............         oo  .........;&&&***=---::::%......",
"       ...........   ....  ooo  oooo.....+;&**==--::::>>:;......",
"   ooo   ..............  ooooooooooooo++++;*==--:::>>,,,,;...   ",
" oooo       .......       ooooooo+++++++++;==-:::>>,,,,,>;++++++",
"++oooooo                oooo+++++++++OO+++;=-::>>,,,,,,,>;++++++",
"++++ooooooooo          o+++++++++OOOO+++++;-::>,,,,,,,,>:;++++++",
"++++++++oooo        ++++++++++OOOO++++++++;::>,,,,,,,,,>:;++++++",
"XXXX++oooooooo  +++++++++++OOOOOOOOXXXXXXX;::>,,,,,,,,,>:XX+++XX",
"XXXXXOOoooooo++++++OOO+++OOOOOOOOOOOOOXXXX;:>,,,,,,,,,,>:XXXX++X",
"XXXXXXOOOO+++++++OOO+++OOOOOXXXXXOOOOOOOXX;:>,,,,,,,,,>::XXXXXXX",
"XXXXXXXXOOOO+++OOOO+++OOOOXXXXXOOOOOXXXXXX;>,,,,,,,,,,>::XXXXXXX",
"XXXXXXXOOOXXXXOOOOOOOOOOXXXXXOOOXXXXXXXXXX;>,,,,,,,,,>:::XXXXXXX",
"XXXXXXXXXOOXXXXXOOOOOOXXXXXOOXXXXXXXXXXXXX;,,,,,,,>>>::::XXXXXXX",
"XXXXXXXXXXXXXXXXXOOOOXXXXXXXXXXXXXXXXXXXXX;,,,,,>>:::::::XXXXXXX",
"##@@####@@@@@@@@######@@@@@@@@@@@@@@@@@@@@%,>>:::::::::::<@@@@@@",
"+++++++++++++++++oo                  ooooo+<<<<<<<<<<<<<<X++++++",
"++++++++++++++oo++oo   oo          ooooooooooooooooooo++++++++++",
"+++++OOO++++ooo++oooo    oo          oooo    ooooooooooo++++++++",
"+++OOOO++++++oooooooooo   oooo         ooo     ooooooooooo++++++",
"+++++OOOOXXXXOOO++ooooooooooooooooo           ooo++++oooooo+++++",
"++OOOOOXXXXXOOOOOOOOOoooooo  oooo           ooo+++++ooooo+++++++",
"OOOOOOOOXXXOOOXXXOOOOOOooooo              oooooo+++oo++++++++++O",
"OOOOOOXXXXXXOOOXXXXOOOOOOoooooo   oooooooooooo++++++++++++++OOOO",
"XOOXXXXXXXXXXXOOOXXXXXOOOOOooooooo  ooooooo++++++XXXXXXXXXXXXXXX",
"XXOOXXXXXXXXXXXXXOOXXXXXXXXXOOoooooooooooXXXXXXXXXXXXXXXXXXXXXXX",
"XXXXXXXXXXXXXXXXXXXXXXXXXXXXXXXXXXXXXXXXXXXXXXXXXXXXXXXXXXXXXXXX",
"XXXXXXXXXXXXXXXXXXXXXXXXXXXXXXXXXXXXXXXXXXXXXXXXXXXXXXXXXXXXXXXX",
"XXXXXXXXXXXXXXXXXXXXXXXXXXXXXXXXXXXXXXXXXXXXXXXXXXXXXXXXXXXXXXXX",
"XXXXXXXXXXXXXXXXXXXXXXXXXXXXXXXXXXXXXXXXXXXXXXXXXXXXXXXXXXXXXXXX",
"XXXXXXXXXXXXXXXXXXXXXXXXXXXXXXXXXXXXXXXXXXXXXXXXXXXXXXXXXXXXXXXX",
"######@#######$$$$$$$1######@@@@@@@@@@@@@@@@@@@@@@@@@@@@@@@@##@@",
"XXXXX2$&&&&&&******==%XXXXXXXXXXXXXX<<<XXXXXX2222222XXXXXXXXXXXX",
"XXX222$&&&**=======-:%XXXXXXXXXXXX<<<<<<<XXXXX22222222222XXXXXXX",
"22XX22;&&*======---:,;XXXXXXXXXXX22<<<<<<<<XX222222222XXXXXXXXXX",
"<22222;&*====---:::>,;XXXXXX332XXXX22<<<<<<<<<<<2222XXXX2222<<<<",
"<<<222;&*==--:::::>,,;33333332222XXX22<<<<<<<<<<<<<222222<<<<<<<",
"<<2222;*=--:::::::>,,;333332222222222<<<<<222<<<<22222<<<<<<<<<<",
"<<<<<2;=-::::::::>,,4X;;;;33223322222222<<<2222<<<<2222<<<<<<<<<",
"<<<<<<;-:::::::>>,,,4X;;3333333333332222222222<<<<<<<<<<<<<<<<<<",
"555<<<;-:::::>>,,,,,4X;;;333333;;;3333332222<<<<55555<<<<<<<<<<<",
"55<<<<;::::>>,,,,,,,4X;;;;;;;333;;;;;333333555555555<<<<<<<;;555",
"5555<<;::>>,,,,,,,,,4X;;;;;;;;;;;;;;;;;;33333333555555<<<;;;5555",
";55555;:>,,,,,,,,,,44X;;;;;;;;;;;;;;;;3333;;;33333555555;;;555;;",
";;;;55;>,,,,,,,,,,,44X;;;;;;;;;;;;;;;;;;;33;;;;33333555;;;;;;55;",
";;;;;;;,,,,,,,,,,,444X;;;;;;;;;;;;;;;;;;;;;;;;33335555;;;;;;;;;;",
";;;;;;;,,,,,,,,,44444X;;;;;;;;;;;;;;;;;;;;;;;33333355555;;;;;;;;",
"@@@@@@%<<<<<,,,,,,,,,<@@@@@@@@@@@@@@@@@@@@@@@@@@@@@@@@@@@@@@@@@@"
};
